HIERARCHY
ROOT joint_0
{
	OFFSET 0.000000 0.000000 0.000000
	CHANNELS 6 Xposition Yposition Zposition Zrotation Yrotation Xrotation 
	JOINT joint_1
	{
		OFFSET 0.587158 0.057678 95.682007
		CHANNELS 3 Zrotation Yrotation Xrotation
		JOINT joint_2
		{
			OFFSET -7.116699 -0.219910 87.157959
			CHANNELS 3 Zrotation Yrotation Xrotation
			JOINT joint_3
			{
				OFFSET -5.892822 -0.290222 87.151001
				CHANNELS 3 Zrotation Yrotation Xrotation
				JOINT joint_4
				{
					OFFSET 5.544678 -0.099609 123.768066
					CHANNELS 3 Zrotation Yrotation Xrotation
					JOINT joint_5
					{
						OFFSET 41.981201 4.519775 84.257935
						CHANNELS 3 Zrotation Yrotation Xrotation
						End Site
						{
							OFFSET 0.000000 0.000000 0.000000
						}
					}
				}
				JOINT joint_6
				{
					OFFSET 3.940918 -26.976501 69.308105
					CHANNELS 3 Zrotation Yrotation Xrotation
					JOINT joint_7
					{
						OFFSET 4.776123 -152.592468 -16.842041
						CHANNELS 3 Zrotation Yrotation Xrotation
						JOINT joint_8
						{
							OFFSET 54.421875 -30.424072 -248.864014
							CHANNELS 3 Zrotation Yrotation Xrotation
							JOINT joint_9
							{
								OFFSET 42.120117 -33.387878 -236.524963
								CHANNELS 3 Zrotation Yrotation Xrotation
								End Site
								{
									OFFSET 0.000000 0.000000 0.000000
								}
							}
						}
					}
				}
				JOINT joint_10
				{
					OFFSET 2.312012 26.904114 69.425049
					CHANNELS 3 Zrotation Yrotation Xrotation
					JOINT joint_11
					{
						OFFSET 0.971436 152.197815 -20.626953
						CHANNELS 3 Zrotation Yrotation Xrotation
						JOINT joint_12
						{
							OFFSET 49.954102 28.991455 -249.970093
							CHANNELS 3 Zrotation Yrotation Xrotation
							JOINT joint_13
							{
								OFFSET 48.146973 19.598389 -236.919922
								CHANNELS 3 Zrotation Yrotation Xrotation
								End Site
								{
									OFFSET 0.000000 0.000000 0.000000
								}
							}
						}
					}
				}
			}
		}
	}
	JOINT joint_14
	{
		OFFSET 16.305664 -89.442932 -108.224976
		CHANNELS 3 Zrotation Yrotation Xrotation
		JOINT joint_15
		{
			OFFSET -22.282471 13.437134 -412.904968
			CHANNELS 3 Zrotation Yrotation Xrotation
			JOINT joint_16
			{
				OFFSET -45.426025 14.484802 -445.892029
				CHANNELS 3 Zrotation Yrotation Xrotation
				JOINT joint_17
				{
					OFFSET 173.389404 -9.944031 -76.473001
					CHANNELS 3 Zrotation Yrotation Xrotation
					End Site
					{
						OFFSET 0.000000 0.000000 0.000000
					}
				}
			}
		}
	}
	JOINT joint_18
	{
		OFFSET 13.392822 89.408875 -108.653992
		CHANNELS 3 Zrotation Yrotation Xrotation
		JOINT joint_19
		{
			OFFSET -29.032959 24.483521 -411.977966
			CHANNELS 3 Zrotation Yrotation Xrotation
			JOINT joint_20
			{
				OFFSET -30.530029 28.986328 -446.453018
				CHANNELS 3 Zrotation Yrotation Xrotation
				JOINT joint_21
				{
					OFFSET 170.330078 33.400757 -76.698997
					CHANNELS 3 Zrotation Yrotation Xrotation
					End Site
					{
						OFFSET 0.000000 0.000000 0.000000
					}
				}
			}
		}
	}
}
MOTION
Frames: 14
Frame Time: 0.016667
-1745.909058 894.564636 1060.494019 -15.196654 0.068409 1.070526 -1.538986 -2.130652 -1.157900 -1.349601 0.379498 0.229413 -1.366887 -0.379610 -0.132043 0.741228 -1.209806 -1.355306 0.000000 0.000000 0.000000 0.942667 2.705340 2.863920 0.121765 2.779835 -0.057001 0.121123 -2.453551 -2.119104 0.000000 0.000000 0.000000 0.016125 3.302523 -1.190241 0.623867 3.357465 1.583952 -0.193616 -1.613994 -0.052690 0.000000 0.000000 0.000000 -23.258527 -0.534304 -4.115352 -22.999996 2.004259 -5.037895 -24.802250 4.944787 -10.410444 0.000000 0.000000 0.000000 -6.089110 -3.477634 -0.081384 -5.632040 2.825136 -0.870889 -5.794534 -0.236466 -2.559497 0.000000 0.000000 0.000000 
-1745.862549 894.743286 1060.483032 -15.179351 0.035018 1.073070 -1.540526 -2.104409 -1.147928 -1.352759 0.374761 0.227247 -1.369802 -0.374007 -0.129867 0.741014 -1.203846 -1.355597 0.000000 0.000000 0.000000 0.932328 2.708551 2.813180 0.119912 2.783001 -0.059366 0.124029 -2.454542 -2.100918 0.000000 0.000000 0.000000 0.022935 3.301794 -1.193469 0.628775 3.356160 1.611270 -0.178743 -1.542012 -0.016322 0.000000 0.000000 0.000000 -23.251993 -0.525490 -4.132715 -22.993113 2.037329 -5.067918 -24.818514 4.935506 -10.413769 0.000000 0.000000 0.000000 -6.089176 -3.463591 -0.101244 -5.632192 2.860800 -0.871423 -5.799762 -0.255822 -2.557899 0.000000 0.000000 0.000000 
-1745.817261 894.921143 1060.472046 -15.165763 0.002690 1.075944 -1.540847 -2.085805 -1.135690 -1.354597 0.369750 0.224280 -1.371354 -0.369376 -0.127874 0.748087 -1.191696 -1.371204 0.000000 0.000000 0.000000 0.921473 2.712693 2.764465 0.117679 2.786886 -0.062946 0.124650 -2.450551 -2.090927 0.000000 0.000000 0.000000 0.030816 3.302296 -1.195086 0.634387 3.356034 1.640799 -0.167847 -1.488358 0.009505 0.000000 0.000000 0.000000 -23.245008 -0.518858 -4.152325 -22.986139 2.074115 -5.094572 -24.833474 4.920489 -10.416865 0.000000 0.000000 0.000000 -6.087835 -3.451330 -0.120096 -5.630498 2.898346 -0.874634 -5.803784 -0.276203 -2.555542 0.000000 0.000000 0.000000 
-1745.766846 895.099121 1060.464966 -15.159120 -0.023706 1.080285 -1.540196 -2.086541 -1.119371 -1.355013 0.369097 0.220343 -1.371324 -0.367821 -0.125970 0.767466 -1.165487 -1.413086 0.000000 0.000000 0.000000 0.914279 2.718928 2.716019 0.115333 2.793159 -0.066447 0.121385 -2.438506 -2.095413 0.000000 0.000000 0.000000 0.044011 3.307381 -1.195472 0.641079 3.359920 1.672782 -0.163291 -1.462057 0.017961 0.000000 0.000000 0.000000 -23.237394 -0.521984 -4.175946 -22.978632 2.119730 -5.115350 -24.845877 4.897590 -10.419420 0.000000 0.000000 0.000000 -6.083545 -3.445724 -0.136998 -5.624886 2.937549 -0.884021 -5.804985 -0.298087 -2.551581 0.000000 0.000000 0.000000 
-1745.716797 895.275146 1060.458008 -15.157065 -0.049019 1.085117 -1.538181 -2.095111 -1.102274 -1.353787 0.368553 0.217070 -1.369690 -0.367991 -0.123711 0.794519 -1.133228 -1.470932 0.000000 0.000000 0.000000 0.906898 2.726460 2.668473 0.112718 2.800588 -0.070691 0.115912 -2.421880 -2.108126 0.000000 0.000000 0.000000 0.058157 3.314261 -1.195018 0.648530 3.365558 1.707287 -0.162918 -1.454605 0.015479 0.000000 0.000000 0.000000 -23.228842 -0.527394 -4.201671 -22.970491 2.169081 -5.133231 -24.856771 4.868576 -10.421638 0.000000 0.000000 0.000000 -6.077459 -3.441678 -0.152947 -5.617058 2.978288 -0.896340 -5.804625 -0.321025 -2.546694 0.000000 0.000000 0.000000 
-1745.675537 895.452698 1060.453003 -15.154869 -0.075290 1.090506 -1.537273 -2.101007 -1.085705 -1.353716 0.369409 0.214018 -1.369224 -0.369338 -0.121786 0.824143 -1.117047 -1.531760 0.000000 0.000000 0.000000 0.900796 2.732462 2.624241 0.110071 2.806534 -0.076160 0.111237 -2.407675 -2.119145 0.000000 0.000000 0.000000 0.072318 3.320289 -1.192367 0.655439 3.370312 1.739247 -0.164595 -1.458238 0.008677 0.000000 0.000000 0.000000 -23.218311 -0.531678 -4.224116 -22.959522 2.216144 -5.157409 -24.868670 4.835748 -10.423889 0.000000 0.000000 0.000000 -6.071907 -3.435328 -0.170241 -5.610357 3.015569 -0.906393 -5.804563 -0.340940 -2.542548 0.000000 0.000000 0.000000 
-1745.648315 895.637756 1060.451050 -15.150695 -0.104270 1.096740 -1.538665 -2.099198 -1.068688 -1.356293 0.369159 0.210036 -1.371305 -0.369090 -0.119389 0.856580 -1.127339 -1.594781 0.000000 0.000000 0.000000 0.896987 2.735012 2.583682 0.107370 2.809195 -0.084173 0.108039 -2.398267 -2.127254 0.000000 0.000000 0.000000 0.085703 3.325478 -1.187042 0.661657 3.374281 1.767532 -0.168656 -1.477115 -0.001879 0.000000 0.000000 0.000000 -23.205729 -0.532200 -4.241521 -22.945394 2.257166 -5.191556 -24.883084 4.799341 -10.426559 0.000000 0.000000 0.000000 -6.067694 -3.425237 -0.191017 -5.606057 3.049059 -0.911305 -5.805615 -0.356955 -2.539696 0.000000 0.000000 0.000000 
-1745.628906 895.824219 1060.451050 -15.146229 -0.134347 1.103186 -1.540844 -2.093844 -1.051632 -1.359760 0.368249 0.206221 -1.374315 -0.368377 -0.117166 0.892068 -1.154812 -1.661571 0.000000 0.000000 0.000000 0.893625 2.736143 2.545659 0.104745 2.810406 -0.093142 0.105766 -2.391938 -2.133645 0.000000 0.000000 0.000000 0.097835 3.329727 -1.180188 0.667431 3.377449 1.793626 -0.174752 -1.507555 -0.016501 0.000000 0.000000 0.000000 -23.191422 -0.531025 -4.255467 -22.928732 2.295499 -5.231655 -24.898553 4.759338 -10.429313 0.000000 0.000000 0.000000 -6.064046 -3.412519 -0.212750 -5.602895 3.078785 -0.914222 -5.806971 -0.370105 -2.537554 0.000000 0.000000 0.000000 
-1745.610596 895.992554 1060.451050 -15.144873 -0.160421 1.110708 -1.541747 -2.089408 -1.041221 -1.361505 0.367539 0.204343 -1.375849 -0.368419 -0.116177 0.925438 -1.194649 -1.722495 0.000000 0.000000 0.000000 0.890660 2.739414 2.508977 0.103578 2.813931 -0.095791 0.105279 -2.390586 -2.134920 0.000000 0.000000 0.000000 0.107603 3.331747 -1.172436 0.672276 3.378628 1.816349 -0.179910 -1.534569 -0.028272 0.000000 0.000000 0.000000 -23.173837 -0.535578 -4.266072 -22.907369 2.337284 -5.276296 -24.912546 4.715768 -10.431233 0.000000 0.000000 0.000000 -6.059711 -3.399234 -0.231717 -5.599087 3.100085 -0.920657 -5.807005 -0.380401 -2.535371 0.000000 0.000000 0.000000 
-1745.594727 896.129883 1060.449951 -15.148093 -0.180118 1.119465 -1.540780 -2.086952 -1.038013 -1.361032 0.366680 0.202271 -1.375094 -0.367351 -0.114445 0.956257 -1.253009 -1.775915 0.000000 0.000000 0.000000 0.889694 2.745716 2.471894 0.104840 2.820992 -0.088423 0.107627 -2.397824 -2.128936 0.000000 0.000000 0.000000 0.115032 3.330546 -1.164780 0.676357 3.376814 1.836958 -0.183574 -1.556137 -0.035465 0.000000 0.000000 0.000000 -23.150973 -0.550527 -4.270200 -22.877947 2.386372 -5.330193 -24.924955 4.668989 -10.431993 0.000000 0.000000 0.000000 -6.054593 -3.385822 -0.244687 -5.594172 3.109170 -0.934536 -5.805203 -0.386664 -2.533133 0.000000 0.000000 0.000000 
-1745.579834 896.250122 1060.447998 -15.154430 -0.196123 1.129093 -1.538689 -2.084610 -1.040943 -1.358992 0.365505 0.202680 -1.373148 -0.366379 -0.114980 0.985074 -1.325806 -1.823414 0.000000 0.000000 0.000000 0.889677 2.753908 2.436176 0.107678 2.830240 -0.074589 0.111802 -2.410517 -2.118241 0.000000 0.000000 0.000000 0.121495 3.326802 -1.155661 0.679356 3.372484 1.853703 -0.186224 -1.574022 -0.039532 0.000000 0.000000 0.000000 -23.125107 -0.570945 -4.270984 -22.844127 2.438976 -5.388545 -24.936300 4.618636 -10.432117 0.000000 0.000000 0.000000 -6.048677 -3.371360 -0.254806 -5.588530 3.109373 -0.951981 -5.801959 -0.390243 -2.530765 0.000000 0.000000 0.000000 
-1745.556152 896.373901 1060.452026 -15.157465 -0.207950 1.136632 -1.537813 -2.089322 -1.047035 -1.357700 0.365954 0.204326 -1.372062 -0.367279 -0.115979 1.008900 -1.388655 -1.862169 0.000000 0.000000 0.000000 0.892879 2.764038 2.402276 0.109909 2.841805 -0.059857 0.115059 -2.417328 -2.105549 0.000000 0.000000 0.000000 0.125112 3.322006 -1.151279 0.681005 3.367326 1.865435 -0.186651 -1.581625 -0.037785 0.000000 0.000000 0.000000 -23.102918 -0.590121 -4.273573 -22.815507 2.486745 -5.435222 -24.944900 4.570757 -10.431848 0.000000 0.000000 0.000000 -6.044424 -3.360412 -0.264379 -5.584669 3.108091 -0.965957 -5.799731 -0.391614 -2.529312 0.000000 0.000000 0.000000 
-1745.516846 896.511169 1060.463013 -15.155301 -0.214467 1.141537 -1.538546 -2.104830 -1.056933 -1.357344 0.369402 0.208065 -1.372151 -0.371692 -0.118538 1.026264 -1.433852 -1.890331 0.000000 0.000000 0.000000 0.900666 2.777368 2.370068 0.110872 2.857151 -0.044477 0.116774 -2.414009 -2.089169 0.000000 0.000000 0.000000 0.124903 3.315776 -1.154531 0.680937 3.361019 1.871292 -0.182999 -1.569995 -0.025592 0.000000 0.000000 0.000000 -23.087206 -0.607451 -4.281429 -22.796119 2.528495 -5.462686 -24.949916 4.525857 -10.431296 0.000000 0.000000 0.000000 -6.042145 -3.355517 -0.275813 -5.583125 3.107890 -0.972634 -5.798957 -0.391779 -2.528789 0.000000 0.000000 0.000000 
-1745.467896 896.651855 1060.479980 -15.149862 -0.216778 1.144732 -1.540066 -2.127997 -1.070686 -1.357181 0.375040 0.214146 -1.372761 -0.377273 -0.123548 1.037360 -1.470790 -1.907107 0.000000 0.000000 0.000000 0.910439 2.792630 2.340859 0.111418 2.874624 -0.028100 0.117685 -2.405883 -2.071524 0.000000 0.000000 0.000000 0.120826 3.308075 -1.160984 0.679514 3.353622 1.872118 -0.177286 -1.548162 -0.008386 0.000000 0.000000 0.000000 -23.075146 -0.623781 -4.291508 -22.781928 2.565503 -5.478621 -24.952120 4.483675 -10.430297 0.000000 0.000000 0.000000 -6.041321 -3.353806 -0.287116 -5.583238 3.105424 -0.976031 -5.799007 -0.389624 -2.529114 0.000000 0.000000 0.000000 
